<?xml version="1.0" encoding="UTF-8"?>
<svg version="1.1" xmlns="http://www.w3.org/2000/svg" width="768" height="768">
<path d="M0 0 C1.02480469 0.00215515 2.04960937 0.0043103 3.10546875 0.00653076 C86.88943702 0.28787056 165.16167397 29.65003155 230.125 82.3125 C230.65996094 82.74159668 231.19492187 83.17069336 231.74609375 83.61279297 C240.17885591 90.41931034 247.90458463 97.90887362 255.5625 105.5625 C256.27164551 106.27014999 256.27164551 106.27014999 256.99511719 106.99209595 C274.0692004 124.07026352 289.06217434 143.0065233 302.125 163.3125 C302.52025879 163.92351562 302.91551758 164.53453125 303.32275391 165.1640625 C315.88896271 184.73207124 326.83744117 205.57083804 335.125 227.3125 C335.48932129 228.26302246 335.85364258 229.21354492 336.22900391 230.19287109 C345.67860066 255.07377415 351.79630626 280.10040997 356.125 306.3125 C356.39836182 307.9197998 356.39836182 307.9197998 356.67724609 309.55957031 C362.37094968 344.49228305 361.20767532 382.50145097 355.125 417.3125 C354.91069336 418.55 354.69638672 419.7875 354.47558594 421.0625 C343.31411945 483.44973625 315.77479639 545.91650662 272.42578125 592.80078125 C270.58598436 594.80925222 268.81046005 596.8464235 267.0390625 598.9140625 C262.78166897 603.79259897 258.22331531 608.36472922 253.63696289 612.9309082 C252.18975615 614.37275221 250.74797974 615.81987116 249.30664062 617.26757812 C244.08330898 622.49516271 238.7645744 627.53610246 233.125 632.3125 C232.29246704 633.03699341 232.29246704 633.03699341 231.44311523 633.77612305 C214.39307534 648.56089651 194.80540593 661.30948435 175.125 672.3125 C174.13234131 672.87445068 174.13234131 672.87445068 173.11962891 673.44775391 C122.09562903 702.09834353 63.88560916 716.79376465 5.49804688 716.57324219 C2.1287233 716.56251186 -1.24006733 716.57321205 -4.609375 716.5859375 C-22.94675457 716.59910506 -40.74312098 715.09760783 -58.8125 712 C-60.73461304 711.67298096 -60.73461304 711.67298096 -62.69555664 711.33935547 C-88.63280666 706.82019535 -113.64881503 699.6405581 -137.875 689.3125 C-138.62555664 688.99700195 -139.37611328 688.68150391 -140.14941406 688.35644531 C-165.62056495 677.6088893 -189.75571303 663.90868433 -211.875 647.3125 C-212.43123047 646.8990332 -212.98746094 646.48556641 -213.56054688 646.05957031 C-221.0134154 640.5062015 -228.03412619 634.6098847 -234.875 628.3125 C-236.20407407 627.14098346 -237.53721028 625.97405394 -238.875 624.8125 C-240.2085002 623.64602407 -241.5418228 622.47934508 -242.875 621.3125 C-243.69097656 620.60222656 -244.50695312 619.89195312 -245.34765625 619.16015625 C-249.91336166 615.13159265 -254.11573266 611.05954119 -258.03515625 606.40234375 C-260.18628821 603.9589136 -262.48251991 601.71073781 -264.8125 599.4375 C-269.60716796 594.67882805 -273.77382379 589.67174933 -277.875 584.3125 C-278.88608745 583.01773594 -279.89785978 581.72350652 -280.91015625 580.4296875 C-314.95748852 536.68552171 -337.69498101 487.2996112 -349.875 433.3125 C-350.17301514 432.03536133 -350.17301514 432.03536133 -350.47705078 430.73242188 C-359.67047132 391.12752011 -360.48663325 346.38799894 -353.875 306.3125 C-353.60163818 304.5795166 -353.60163818 304.5795166 -353.32275391 302.81152344 C-344.64395819 248.41860328 -324.36229888 196.0003257 -291.875 151.3125 C-291.42012207 150.68633789 -290.96524414 150.06017578 -290.49658203 149.41503906 C-277.6731111 131.8572095 -263.45538016 115.83803444 -248.125 100.4375 C-247.42810059 99.73592773 -246.73120117 99.03435547 -246.01318359 98.31152344 C-223.37282379 75.74092535 -196.73233243 57.57040521 -168.73095703 42.33300781 C-166.97355954 41.36669349 -165.2341701 40.36783724 -163.49609375 39.3671875 C-131.4414957 21.35243046 -94.26664575 10.45668332 -58.125 4.5625 C-56.2982373 4.26424316 -56.2982373 4.26424316 -54.43457031 3.95996094 C-36.28417028 1.14343626 -18.36378415 -0.06997937 0 0 Z " fill="#FEFEFE" transform="translate(382.875,25.6875)"/>
<path d="M0 0 C10.72889866 10.37554132 10.72889866 10.37554132 11.55859375 15.25 C11.24415671 22.54493937 7.45002134 30.09006308 3.74609375 36.25 C-0.45716415 44.34896034 1.81367556 54.25802525 4.37890625 62.515625 C5.94544314 68.96183429 6.00616075 75.69541019 3.74609375 81.9375 C0.73883815 86.16993381 0.73883815 86.16993381 -0.94140625 87.3125 C-2.89550781 87.11132812 -2.89550781 87.11132812 -4.94140625 86.3125 C-6.18652344 84.68945312 -6.18652344 84.68945312 -7.23828125 82.59375 C-7.63539307 81.8301416 -8.03250488 81.0665332 -8.44165039 80.27978516 C-8.85406982 79.46558105 -9.26648926 78.65137695 -9.69140625 77.8125 C-16.93514591 64.18706711 -16.93514591 64.18706711 -29.5390625 55.90625 C-39.30819414 53.49176543 -47.01244497 56.30254793 -55.94140625 60.3125 C-56.54533203 60.5801416 -57.14925781 60.8477832 -57.77148438 61.12353516 C-64.5689859 64.14838789 -71.17879404 67.39645746 -77.69140625 71 C-82.42025987 73.58356881 -87.06169849 75.7158167 -92.1796875 77.40234375 C-94.96123356 78.2814643 -94.96123356 78.2814643 -97.671875 79.44140625 C-105.1913338 82.29224466 -112.25902633 82.76136596 -120.25390625 82.875 C-121.2802417 82.90174805 -122.30657715 82.92849609 -123.36401367 82.95605469 C-130.16620978 82.92287594 -134.72954404 81.79185823 -139.94140625 77.3125 C-147.08580127 69.63020651 -148.44874567 60.74931062 -148.25 50.61328125 C-146.76292523 34.70722834 -135.34530434 22.11804577 -123.57421875 12.34765625 C-110.4151838 2.5780697 -94.43123928 -3.40955565 -78.94140625 -8.3125 C-78.02101563 -8.6115625 -77.100625 -8.910625 -76.15234375 -9.21875 C-51.56066436 -17.046524 -20.33674948 -18.58125317 0 0 Z " fill="#FCFCFC" transform="translate(446.94140625,281.6875)"/>
<path d="M0 0 C1.3303125 0.02707031 1.3303125 0.02707031 2.6875 0.0546875 C21.20690665 1.14784692 37.94602875 9.08970453 51 22 C51.97242958 22.91438893 52.94644607 23.82709256 53.921875 24.73828125 C62.08945694 32.46187081 66.29546234 37.49343933 66.625 48.9375 C66.61719634 58.98526548 63.3976065 68.39667839 58.82421875 77.28515625 C56.70231662 81.69991946 57.97308617 86.14591652 59.50390625 90.5234375 C61.26860115 96.24492973 61.37824953 101.55242818 61.25 107.5 C61.24484375 108.48742187 61.2396875 109.47484375 61.234375 110.4921875 C61.15550595 117.6889881 61.15550595 117.6889881 60 120 C59.34 120 58.68 120 58 120 C57.79375 120.825 57.5875 121.65 57.375 122.5 C53.98542904 131.12799881 48.36851499 136.14888403 40 140 C33.83854344 141.67090348 29.15773714 140.6312481 23.52734375 137.72265625 C16.20304443 132.7303595 11.86569372 123.35489886 7.7019043 115.68432617 C5.37142225 111.41531622 5.37142225 111.41531622 2 108 C-4.00753903 107.41295967 -9.4847814 109.73788246 -14.7109375 112.421875 C-15.40458405 112.7637384 -16.09823059 113.10560181 -16.81289673 113.45782471 C-19.00692176 114.54239552 -21.19099992 115.64540369 -23.375 116.75 C-24.8300771 117.47526803 -26.28580277 118.19923637 -27.7421875 118.921875 C-29.86989925 119.97781988 -31.99749754 121.03394931 -34.12350464 122.09332275 C-50.20733094 130.09621323 -50.20733094 130.09621323 -57.125 131.75 C-60.35151266 132.3351712 -60.35151266 132.3351712 -63 134 C-79.5902701 136.31569074 -98.1128617 137.30127288 -112.6796875 127.86328125 C-122.20892633 120.2110137 -128.02367801 108.92953784 -130 97 C-131.60961721 78.58943483 -126.45644182 61.88531095 -114.81323242 47.44921875 C-102.25391753 32.70576401 -87.0052621 22.13892848 -69 15 C-68.10023438 14.62617188 -67.20046875 14.25234375 -66.2734375 13.8671875 C-59.55183968 11.16153167 -52.74390639 8.91284813 -45.8125 6.8125 C-44.58406372 6.43762451 -44.58406372 6.43762451 -43.33081055 6.05517578 C-38.33930321 4.57357996 -33.35870064 3.39940358 -28.23925781 2.44848633 C-26.10078229 2.02018503 -24.03331618 1.47481638 -21.9375 0.875 C-14.78790025 -0.74065688 -7.28317484 -0.21879191 0 0 Z M-97.9765625 56.96875 C-107.00619114 66.67460633 -111.50394372 77.49256349 -111.24609375 90.71875 C-110.6326524 98.89796804 -108.06461536 106.26116976 -102 112 C-95.99684483 116.39656665 -90.94593446 116.66893584 -83.625 116.5625 C-82.56152344 116.55154297 -81.49804688 116.54058594 -80.40234375 116.52929688 C-65.28049504 116.11887275 -53.09973832 111.05966183 -39.92871094 104.02294922 C-36.79115761 102.35885448 -33.61452877 100.77451397 -30.4375 99.1875 C-29.36371094 98.64480469 -28.28992188 98.10210937 -27.18359375 97.54296875 C-23.82952441 95.91737686 -20.43667182 94.44206982 -17 93 C-16.10796875 92.61457031 -15.2159375 92.22914063 -14.296875 91.83203125 C-6.89220324 88.86789118 -0.1084188 87.37697382 7.66796875 89.84765625 C18.58814554 94.72126011 23.24134715 103.68340127 28.44921875 113.91674805 C28.85140625 114.68543213 29.25359375 115.45411621 29.66796875 116.24609375 C30.02141357 116.94404053 30.3748584 117.6419873 30.73901367 118.36108398 C32.32194022 120.41842879 33.48024579 120.63937158 36 121 C37.2065625 119.6078125 37.2065625 119.6078125 38.4375 118.1875 C39.11619141 117.40439453 39.11619141 117.40439453 39.80859375 116.60546875 C43.42026471 111.73859411 42.38717677 104.72376319 42 99 C41.56255869 97.1713936 41.0649121 95.35582946 40.5 93.5625 C37.80149066 84.59354142 37.48877638 76.14134767 41.8125 67.6875 C42.35777344 66.718125 42.90304687 65.74875 43.46484375 64.75 C46.82497619 58.73083145 48.72768836 52.93929622 48 46 C46.40229749 43.6586939 45.03537203 41.95697747 43.0625 40 C42.30815674 39.22354126 42.30815674 39.22354126 41.53857422 38.43139648 C29.58421727 26.33891544 15.43740436 20.13951901 -1.5625 19.25 C-2.34117432 19.20907227 -3.11984863 19.16814453 -3.92211914 19.12597656 C-37.12930749 17.81432136 -74.66594249 33.75026683 -97.9765625 56.96875 Z " fill="#060606" transform="translate(410,248)"/>
<path d="M0 0 C1.84153009 1.18822537 3.40376414 2.57173289 4.953125 4.12109375 C5.6456144 8.96851954 4.4047243 11.44634367 1.52294922 15.30566406 C-1.17305679 18.42347133 -4.35422735 20.76390683 -7.671875 23.18359375 C-8.40752686 23.73305664 -9.14317871 24.28251953 -9.90112305 24.84863281 C-12.27506942 26.61717168 -14.66010861 28.36990501 -17.046875 30.12109375 C-18.68656346 31.33283885 -20.32588506 32.54508053 -21.96484375 33.7578125 C-25.19307673 36.14286468 -28.4249349 38.52287402 -31.66015625 40.8984375 C-57.26413824 59.62131277 -57.26413824 59.62131277 -79.421875 82.18359375 C-83.95592943 87.39877295 -88.83039299 91.52141066 -95.734375 92.80859375 C-100.72176268 91.77347555 -103.38326566 89.38965194 -106.421875 85.24609375 C-108.25996414 78.99659068 -107.07921019 72.73958947 -104.046875 67.12109375 C-100.43046533 62.13907797 -96.23595241 57.62119965 -92.046875 53.12109375 C-91.32757813 52.3425 -90.60828125 51.56390625 -89.8671875 50.76171875 C-84.67937439 45.38016988 -78.87879523 40.77929418 -73.046875 36.12109375 C-71.8752537 35.16013096 -70.70472743 34.19783192 -69.53515625 33.234375 C-56.23862629 22.34021835 -42.21775495 13.1921272 -27.046875 5.12109375 C-25.32597656 4.18330078 -25.32597656 4.18330078 -23.5703125 3.2265625 C-16.18513236 -0.53653048 -8.10627818 -3.48074922 0 0 Z " fill="#040404" transform="translate(215.046875,230.87890625)"/>
<path d="M0 0 C2.99452409 -0.00445393 5.98766033 -0.04119094 8.98193359 -0.07861328 C10.91552242 -0.08446998 12.84911807 -0.08844703 14.78271484 -0.09033203 C16.10314789 -0.11188858 16.10314789 -0.11188858 17.45025635 -0.13388062 C24.0492216 -0.08529684 29.14416992 1.4611137 34.30255127 5.67642212 C36.92280695 8.37544174 38.05250573 10.75748719 38.26708984 14.43310547 C37.63229881 18.8766427 36.97147361 20.35502046 33.70458984 23.37060547 C26.99984114 28.17594595 20.39542612 28.50504895 12.28271484 28.58154297 C10.61204887 28.60749438 8.94139474 28.63421733 7.27075195 28.66162109 C6.40207489 28.67491455 5.53339783 28.68820801 4.63839722 28.7019043 C-13.34093284 28.99466666 -30.98612599 29.99649173 -48.75634766 32.94482422 C-53.79237801 33.55070425 -58.78952754 33.63465057 -63.85791016 33.68310547 C-64.87304688 33.71210938 -65.88818359 33.74111328 -66.93408203 33.77099609 C-73.08013433 33.82318334 -76.61531387 33.46473848 -81.29541016 29.37060547 C-83.39449989 27.20154608 -84.17512225 25.941973 -84.79541016 22.99560547 C-84.0604737 19.13718908 -82.20105605 16.86115909 -79.29541016 14.37060547 C-57.49877182 0.11420308 -25.182316 -0.00419356 0 0 Z " fill="#050505" transform="translate(519.29541015625,113.62939453125)"/>
<path d="M0 0 C0.66 0.33 1.32 0.66 2 1 C-5.59 8.59 -13.18 16.18 -21 24 C-21.66 23.67 -22.32 23.34 -23 23 C-8.1431293 6.74285575 -8.1431293 6.74285575 0 0 Z " fill="#2B2B2B" transform="translate(137,271)"/>
<path d="M0 0 C0.66 0.33 1.32 0.66 2 1 C-4.27 7.27 -10.54 13.54 -17 20 C-17.66 19.67 -18.32 19.34 -19 19 C-6.51480638 5.18223235 -6.51480638 5.18223235 0 0 Z " fill="#292929" transform="translate(312,279)"/>
</svg>
